<svg xmlns="http://www.w3.org/2000/svg" version="1.1" xmlns:xlink="http://www.w3.org/1999/xlink" xmlns:svgjs="http://svgjs.dev/svgjs" width="1500" height="1500" viewBox="0 0 1500 1500"><rect width="1500" height="1500" fill="#000000"></rect><g transform="matrix(0.6666666666666666,0,0,0.6666666666666666,249.39393939393938,567.9720383705039)"><svg viewBox="0 0 396 144" data-background-color="#ffffff" preserveAspectRatio="xMidYMid meet" height="545" width="1500" xmlns="http://www.w3.org/2000/svg" xmlns:xlink="http://www.w3.org/1999/xlink"><g id="tight-bounds" transform="matrix(1,0,0,1,0.2400000000000091,0.1431921320571803)"><svg viewBox="0 0 395.52 143.71361573588564" height="143.71361573588564" width="395.52"><g><svg viewBox="0 0 686.4172137020776 249.41216546439543" height="143.71361573588564" width="395.52"><g><rect width="7.451702818721118" height="227.21371571399152" x="263.9384354416783" y="11.099224875201955" fill="#ffffff" opacity="1" stroke-width="0" stroke="transparent" fill-opacity="1" class="rect-yte-0" data-fill-palette-color="primary" rx="1%" id="yte-0" data-palette-color="#152232"></rect></g><g transform="matrix(1,0,0,1,290.8972137020777,11.664433123246695)"><svg viewBox="0 0 395.5199999999999 226.08329921790204" height="226.08329921790204" width="395.5199999999999"><g id="textblocktransform"><svg viewBox="0 0 395.5199999999999 226.08329921790204" height="226.08329921790204" width="395.5199999999999" id="textblock"><g><svg viewBox="0 0 395.5199999999999 82.6304895104895" height="82.6304895104895" width="395.5199999999999"><g transform="matrix(1,0,0,1,0,0)"><svg width="395.5199999999999" viewBox="1.4 -35.35 171.57999999999998 35.85" height="82.6304895104895" data-palette-color="#152232"><path d="M11.2 0.5L11.2 0.5Q8.45 0.5 6.23-0.88 4-2.25 2.7-4.55 1.4-6.85 1.4-9.7L1.4-9.7 1.45-25.3Q1.45-28.05 2.73-30.33 4-32.6 6.23-33.98 8.45-35.35 11.2-35.35L11.2-35.35Q13.95-35.35 16.15-34 18.35-32.65 19.65-30.38 20.95-28.1 20.95-25.3L20.95-25.3 20.95-23Q20.95-22.8 20.75-22.8L20.75-22.8 15.15-22.8Q14.95-22.8 14.95-23L14.95-23 14.95-25.3Q14.95-26.95 13.88-28.15 12.8-29.35 11.2-29.35L11.2-29.35Q9.4-29.35 8.45-28.13 7.5-26.9 7.5-25.3L7.5-25.3 7.5-9.7Q7.5-7.85 8.58-6.7 9.65-5.55 11.2-5.55L11.2-5.55Q12.8-5.55 13.88-6.83 14.95-8.1 14.95-9.7L14.95-9.7 14.95-12Q14.95-12.2 15.15-12.2L15.15-12.2 20.8-12.2Q21-12.2 21-12L21-12 21-9.7Q21-6.85 19.68-4.55 18.35-2.25 16.15-0.88 13.95 0.5 11.2 0.5ZM30.5 0L24.85 0Q24.65 0 24.65-0.25L24.65-0.25 24.7-34.6Q24.7-34.8 24.95-34.8L24.95-34.8 30.5-34.8Q30.75-34.8 30.75-34.6L30.75-34.6 30.7-21 38.2-21 38.2-34.6Q38.2-34.8 38.4-34.8L38.4-34.8 43.95-34.8Q44.2-34.8 44.2-34.6L44.2-34.6 44.3-0.25Q44.3 0 44.05 0L44.05 0 38.45 0Q38.2 0 38.2-0.25L38.2-0.25 38.2-14.95 30.7-14.95 30.7-0.25Q30.7 0 30.5 0L30.5 0ZM64.75 0L48.6 0Q48.4 0 48.4-0.25L48.4-0.25 48.45-34.6Q48.45-34.8 48.65-34.8L48.65-34.8 64.7-34.8Q64.9-34.8 64.9-34.55L64.9-34.55 64.9-28.95Q64.9-28.75 64.7-28.75L64.7-28.75 54.45-28.75 54.45-20.95 64.7-20.95Q64.9-20.95 64.9-20.75L64.9-20.75 64.95-15.1Q64.95-14.9 64.75-14.9L64.75-14.9 54.45-14.9 54.45-6.15 64.75-6.15Q64.95-6.15 64.95-5.9L64.95-5.9 64.95-0.2Q64.95 0 64.75 0L64.75 0ZM75.24 0L69.59 0Q69.39 0 69.39-0.25L69.39-0.25 69.49-34.6Q69.49-34.8 69.69-34.8L69.69-34.8 75.79-34.8Q75.99-34.8 76.14-34.6L76.14-34.6 80.69-28 85.24-34.6Q85.39-34.8 85.59-34.8L85.59-34.8 91.74-34.8Q91.94-34.8 91.94-34.6L91.94-34.6 92.04-0.25Q92.04 0 91.84 0L91.84 0 86.19 0Q85.99 0 85.99-0.25L85.99-0.25 85.94-25.75 80.69-18.15 75.49-25.75 75.44-0.25Q75.44 0 75.24 0L75.24 0ZM102.09 0L96.44 0Q96.24 0 96.24-0.25L96.24-0.25 96.34-34.6Q96.34-34.8 96.54-34.8L96.54-34.8 106.64-34.8Q109.34-34.8 111.62-33.48 113.89-32.15 115.24-29.93 116.59-27.7 116.59-24.9L116.59-24.9Q116.59-23.05 116.04-21.58 115.49-20.1 114.74-19.07 113.99-18.05 113.39-17.55L113.39-17.55Q116.09-14.55 116.09-10.5L116.09-10.5 116.14-0.25Q116.14 0 115.89 0L115.89 0 110.24 0Q110.04 0 110.04-0.15L110.04-0.15 110.04-10.5Q110.04-12.3 108.77-13.63 107.49-14.95 105.64-14.95L105.64-14.95 102.34-14.95 102.29-0.25Q102.29 0 102.09 0L102.09 0ZM102.34-28.8L102.34-20.95 106.64-20.95Q108.19-20.95 109.39-22.1 110.59-23.25 110.59-24.9L110.59-24.9Q110.59-26.5 109.42-27.65 108.24-28.8 106.64-28.8L106.64-28.8 102.34-28.8ZM126.24 0L120.59 0Q120.34 0 120.34-0.25L120.34-0.25 120.39-34.6Q120.39-34.8 120.59-34.8L120.59-34.8 126.19-34.8Q126.39-34.8 126.39-34.6L126.39-34.6 126.44-0.25Q126.44 0 126.24 0L126.24 0ZM136.28 0L131.28 0Q130.89 0 130.89-0.35L130.89-0.35 130.84-34.4Q130.84-34.8 131.24-34.8L131.24-34.8 135.74-34.8 144.19-15.1 143.94-34.4Q143.94-34.8 144.39-34.8L144.39-34.8 149.34-34.8Q149.64-34.8 149.64-34.4L149.64-34.4 149.69-0.3Q149.69 0 149.44 0L149.44 0 145.03 0 136.39-18.4 136.74-0.4Q136.74 0 136.28 0L136.28 0ZM163.18 0.5L163.18 0.5Q160.48 0.5 158.28-0.85 156.08-2.2 154.76-4.48 153.43-6.75 153.43-9.55L153.43-9.55 153.43-25.4Q153.43-28.1 154.76-30.38 156.08-32.65 158.31-34 160.53-35.35 163.18-35.35L163.18-35.35Q165.93-35.35 168.16-34.02 170.38-32.7 171.68-30.45 172.98-28.2 172.98-25.4L172.98-25.4 172.98-23.1Q172.98-22.9 172.73-22.9L172.73-22.9 167.13-22.9Q166.93-22.9 166.93-23.1L166.93-23.1 166.93-25Q166.93-26.9 165.86-28.15 164.78-29.4 163.18-29.4L163.18-29.4Q161.73-29.4 160.61-28.2 159.48-27 159.48-25.4L159.48-25.4 159.48-9.55Q159.48-7.9 160.58-6.73 161.68-5.55 163.18-5.55L163.18-5.55Q164.78-5.55 165.86-6.7 166.93-7.85 166.93-9.55L166.93-9.55 166.93-12 163.43-12Q163.18-12 163.18-12.25L163.18-12.25 163.18-17.85Q163.18-18.1 163.43-18.1L163.43-18.1 172.78-18.1Q172.98-18.1 172.98-17.85L172.98-17.85 172.98-9.55Q172.98-6.75 171.66-4.48 170.33-2.2 168.13-0.85 165.93 0.5 163.18 0.5Z" opacity="1" transform="matrix(1,0,0,1,0,0)" fill="#ffffff" class="wordmark-text-0" data-fill-palette-color="primary" id="text-0"></path></svg></g></svg></g><g transform="matrix(1,0,0,1,22.70199016824762,102.13756495216782)"><svg viewBox="0 0 350.1160196635047 123.94573426573423" height="123.94573426573423" width="350.1160196635047"><g transform="matrix(1,0,0,1,0,0)"><svg width="350.1160196635047" viewBox="1.7 -39.65 142.64000000000001 50.5" height="123.94573426573423" data-palette-color="#fe5b25"><path d="M12.25-27.15Q17.25-27.15 20.03-23.65 22.8-20.15 22.8-13.25L22.8-13.25Q22.8-6.65 20-2.95 17.2 0.75 12.25 0.75L12.25 0.75Q7.3 0.75 4.5-2.88 1.7-6.5 1.7-13.25L1.7-13.25Q1.7-19.95 4.5-23.55 7.3-27.15 12.25-27.15L12.25-27.15ZM12.25-22.5Q10.1-22.5 9.1-20.38 8.1-18.25 8.1-13.25L8.1-13.25Q8.1-8.2 9.1-6.08 10.1-3.95 12.25-3.95L12.25-3.95Q14.4-3.95 15.4-6.08 16.4-8.2 16.4-13.25L16.4-13.25Q16.4-18.3 15.4-20.4 14.4-22.5 12.25-22.5L12.25-22.5ZM39.55-27.15Q43.45-27.15 45.45-23.58 47.45-20 47.45-13.3L47.45-13.3Q47.45-6.8 45.17-3.03 42.9 0.75 38.85 0.75L38.85 0.75Q35.65 0.75 33.5-2.1L33.5-2.1 33.5 10.15 27.35 10.85 27.35-26.45 32.8-26.45 33.05-23.25Q34.35-25.25 35.95-26.2 37.55-27.15 39.55-27.15L39.55-27.15ZM37.2-3.95Q39.1-3.95 40.1-6.13 41.1-8.3 41.1-13.25L41.1-13.25Q41.1-18.45 40.25-20.5 39.4-22.55 37.6-22.55L37.6-22.55Q35.3-22.55 33.5-19.25L33.5-19.25 33.5-6.45Q35.1-3.95 37.2-3.95L37.2-3.95ZM63.2-5L65.35-1.2Q62.9 0.75 59.6 0.75L59.6 0.75Q56.15 0.75 54.35-1.23 52.55-3.2 52.55-6.6L52.55-6.6 52.55-22 49.45-22 49.45-26.45 52.55-26.45 52.55-32.3 58.7-33.05 58.7-26.45 63.7-26.45 63.1-22 58.7-22 58.7-6.6Q58.7-4.2 60.75-4.2L60.75-4.2Q61.4-4.2 61.9-4.38 62.4-4.55 63.2-5L63.2-5ZM67.89-26.45L74.04-26.45 74.04 0 67.89 0 67.89-26.45ZM70.94-39.65Q72.59-39.65 73.62-38.6 74.64-37.55 74.64-35.9L74.64-35.9Q74.64-34.3 73.62-33.25 72.59-32.2 70.94-32.2L70.94-32.2Q69.29-32.2 68.27-33.25 67.24-34.3 67.24-35.9L67.24-35.9Q67.24-37.55 68.27-38.6 69.29-39.65 70.94-39.65L70.94-39.65ZM89.14-27.15Q94.14-27.15 96.92-23.65 99.69-20.15 99.69-13.25L99.69-13.25Q99.69-6.65 96.89-2.95 94.09 0.75 89.14 0.75L89.14 0.75Q84.19 0.75 81.39-2.88 78.59-6.5 78.59-13.25L78.59-13.25Q78.59-19.95 81.39-23.55 84.19-27.15 89.14-27.15L89.14-27.15ZM89.14-22.5Q86.99-22.5 85.99-20.38 84.99-18.25 84.99-13.25L84.99-13.25Q84.99-8.2 85.99-6.08 86.99-3.95 89.14-3.95L89.14-3.95Q91.29-3.95 92.29-6.08 93.29-8.2 93.29-13.25L93.29-13.25Q93.29-18.3 92.29-20.4 91.29-22.5 89.14-22.5L89.14-22.5ZM116.59-27.15Q119.44-27.15 121.09-25.1 122.74-23.05 122.74-19.6L122.74-19.6 122.74 0 116.59 0 116.59-18.9Q116.59-20.8 116.06-21.63 115.54-22.45 114.54-22.45L114.54-22.45Q112.44-22.45 110.39-18.5L110.39-18.5 110.39 0 104.24 0 104.24-26.45 109.59-26.45 110.04-23Q111.39-25.1 112.91-26.13 114.44-27.15 116.59-27.15L116.59-27.15ZM135.64-27.15Q140.34-27.15 143.59-24.05L143.59-24.05 141.24-20.7Q139.84-21.7 138.59-22.2 137.34-22.7 136.04-22.7L136.04-22.7Q134.59-22.7 133.76-21.93 132.94-21.15 132.94-19.8L132.94-19.8Q132.94-18.45 133.86-17.63 134.79-16.8 137.59-15.7L137.59-15.7Q141.04-14.35 142.69-12.5 144.34-10.65 144.34-7.55L144.34-7.55Q144.34-3.7 141.64-1.48 138.94 0.75 134.79 0.75L134.79 0.75Q132.09 0.75 129.81-0.23 127.54-1.2 125.84-2.95L125.84-2.95 128.84-6.25Q131.64-3.8 134.54-3.8L134.54-3.8Q136.19-3.8 137.14-4.67 138.09-5.55 138.09-7.1L138.09-7.1Q138.09-8.25 137.69-8.97 137.29-9.7 136.29-10.33 135.29-10.95 133.29-11.7L133.29-11.7Q129.84-13.05 128.36-14.85 126.89-16.65 126.89-19.45L126.89-19.45Q126.89-22.8 129.26-24.98 131.64-27.15 135.64-27.15L135.64-27.15Z" opacity="1" transform="matrix(1,0,0,1,0,0)" fill="#ffffff" class="slogan-text-1" data-fill-palette-color="secondary" id="text-1"></path></svg></g></svg></g></svg></g></svg></g><g><svg viewBox="0 0 244.43135999999996 249.41216546439543" height="249.41216546439543" width="244.43135999999996"><g><svg xmlns="http://www.w3.org/2000/svg" xmlns:xlink="http://www.w3.org/1999/xlink" version="1.1" x="0" y="0" viewBox="1.9978928999999965 0 196.00596430000002 200" enable-background="new 0 0 200 200" xml:space="preserve" height="249.41216546439543" width="244.43135999999996" class="icon-icon-0" data-fill-palette-color="accent" id="icon-0"><g fill="#fe5b25" data-fill-palette-color="accent"><g fill="#fe5b25" data-fill-palette-color="accent"><path fill="#ffffff" d="M100.001 115.093L57.715 90.681V41.852L100.001 17.439 142.283 41.852V90.681zM64.382 86.832L100.001 107.393 135.616 86.832V45.701L100.001 25.139 64.382 45.701z" data-fill-palette-color="accent"></path><path fill="#ffffff" d="M61.049 182.561L18.763 158.149V109.318L61.049 84.909 103.335 109.318V158.149zM25.429 154.3L61.049 174.862 96.668 154.3V113.168L61.049 92.604 25.429 113.167z" data-fill-palette-color="accent"></path><path fill="#ffffff" d="M138.95 182.561L96.668 158.149V109.32L138.95 84.908 181.238 109.317V158.148zM103.335 154.3L138.95 174.862 174.572 154.298V113.169L138.95 92.604 103.335 113.167z" data-fill-palette-color="accent"></path><rect x="96.668" fill="#ffffff" width="6.667" height="21.29" data-fill-palette-color="accent"></rect><rect x="57.715" y="178.713" fill="#ffffff" width="6.667" height="21.287" data-fill-palette-color="accent"></rect><rect x="135.616" y="178.713" fill="#ffffff" width="6.667" height="21.287" data-fill-palette-color="accent"></rect><rect x="183.79" y="95.276" transform="matrix(0.5001 0.8659 -0.8659 0.5001 185.2563 -109.0928)" fill="#ffffff" width="6.666" height="21.288" data-fill-palette-color="accent"></rect><rect x="2.234" y="102.587" transform="matrix(0.8661 0.4999 -0.4999 0.8661 54.6796 7.7492)" fill="#ffffff" width="21.287" height="6.668" data-fill-palette-color="accent"></rect></g><g fill="#fe5b25" data-fill-palette-color="accent"><polygon fill="#ffffff" points="76.604,80.202 83.271,76.352 100.001,86.01 116.728,76.354 123.395,80.203 100.001,93.71   " data-fill-palette-color="accent"></polygon><polygon fill="#ffffff" points="76.604,52.33 100.001,38.823 123.395,52.33 116.728,56.178 100.001,46.522 83.271,56.178   " data-fill-palette-color="accent"></polygon><polygon fill="#ffffff" points="78.149,143.18 78.149,123.86 61.419,114.201 61.419,106.505 84.816,120.012 84.816,147.028   " data-fill-palette-color="accent"></polygon><polygon fill="#ffffff" points="37.281,147.457 37.281,120.437 43.948,124.288 43.948,143.608 60.678,153.267 60.678,160.964       " data-fill-palette-color="accent"></polygon><polygon fill="#ffffff" points="115.187,120.012 138.582,106.502 138.582,114.201 121.854,123.86 121.854,143.18 115.187,147.028       " data-fill-palette-color="accent"></polygon><polygon fill="#ffffff" points="139.323,153.264 156.054,143.605 156.054,124.288 162.72,120.437 162.72,147.454 139.323,160.961       " data-fill-palette-color="accent"></polygon></g></g></svg></g></svg></g></svg></g><defs></defs></svg><rect width="395.52" height="143.71361573588564" fill="none" stroke="none" visibility="hidden"></rect></g></svg></g></svg>