<svg xmlns="http://www.w3.org/2000/svg" version="1.1" xmlns:xlink="http://www.w3.org/1999/xlink" xmlns:svgjs="http://svgjs.dev/svgjs" width="1500" height="1500" viewBox="0 0 1500 1500"><rect width="1500" height="1500" fill="#000000"></rect><g transform="matrix(0.6666666666666666,0,0,0.6666666666666666,249.39393939393938,571.3213774758128)"><svg viewBox="0 0 396 142" data-background-color="#ffffff" preserveAspectRatio="xMidYMid meet" height="537" width="1500" xmlns="http://www.w3.org/2000/svg" xmlns:xlink="http://www.w3.org/1999/xlink"><g id="tight-bounds" transform="matrix(1,0,0,1,0.2400000000000091,-0.1274737473894163)"><svg viewBox="0 0 395.52 142.2547889837279" height="142.2547889837279" width="395.52"><g><svg viewBox="0 0 679.0724047298643 244.23872785072692" height="142.2547889837279" width="395.52"><g transform="matrix(1,0,0,1,283.55240472986424,44.929661484874615)"><svg viewBox="0 0 395.52 154.3794048809777" height="154.3794048809777" width="395.52"><g id="textblocktransform"><svg viewBox="0 0 395.52 154.3794048809777" height="154.3794048809777" width="395.52" id="textblock"><g><svg viewBox="0 0 395.52 83.26487419122932" height="83.26487419122932" width="395.52"><g transform="matrix(1,0,0,1,0,0)"><svg width="395.52" viewBox="1.93 -34.35 208.63 43.93" height="83.26487419122932" data-palette-color="#fe5b25"><g class="wordmark-text-0" data-fill-palette-color="primary" id="text-0"><path d="M15.43 0.7L15.43 0.7Q8.6 0.7 5.26-2.91 1.93-6.53 1.93-13.23L1.93-13.23 1.93-18.9Q1.93-25.48 5.28-29.06 8.63-32.65 15.38-32.65L15.38-32.65Q17.18-32.65 18.7-32.38 20.23-32.1 21.48-31.64 22.73-31.18 23.68-30.6L23.68-30.6 24.25-23.9Q22.78-24.68 21.01-25.26 19.25-25.85 16.93-25.85L16.93-25.85Q13.35-25.85 11.64-23.94 9.93-22.03 9.93-18.57L9.93-18.57 9.93-13.53Q9.93-10.1 11.66-8.18 13.4-6.25 17.23-6.25L17.23-6.25Q19.48-6.25 21.25-6.85 23.03-7.45 24.5-8.3L24.5-8.3 23.93-1.45Q22.98-0.88 21.7-0.39 20.43 0.1 18.86 0.4 17.3 0.7 15.43 0.7ZM52.07-15.68L52.07 0 44.42 0 44.42-14.45Q44.42-15.8 44.07-16.79 43.72-17.78 42.91-18.3 42.1-18.82 40.65-18.82L40.65-18.82Q39.47-18.82 38.57-18.41 37.67-18 37.09-17.29 36.5-16.57 36.17-15.68L36.17-15.68 34.62-19.25 36.4-19.25Q36.77-20.93 37.67-22.25 38.57-23.58 40.16-24.36 41.75-25.15 44.15-25.15L44.15-25.15Q46.9-25.15 48.65-24.09 50.4-23.03 51.23-20.93 52.07-18.82 52.07-15.68L52.07-15.68ZM36.27-16.98L36.27 0 28.62 0 28.62-33.02 36.22-33.02 36.22-25.68 36.1-17.57 36.27-16.98ZM69.15 0.63L69.15 0.63Q62.45 0.63 59.25-2.36 56.05-5.35 56.05-11.08L56.05-11.08 56.05-13.63Q56.05-19.28 59.05-22.29 62.05-25.3 67.77-25.3L67.77-25.3Q71.62-25.3 74.18-23.99 76.75-22.68 78.03-20.25 79.32-17.82 79.32-14.43L79.32-14.43 79.32-13.6Q79.32-12.65 79.23-11.66 79.15-10.68 79-9.83L79-9.83 72.1-9.83Q72.2-11.28 72.22-12.56 72.25-13.85 72.25-14.9L72.25-14.9Q72.25-16.43 71.77-17.46 71.3-18.5 70.31-19.05 69.32-19.6 67.77-19.6L67.77-19.6Q65.47-19.6 64.41-18.36 63.35-17.13 63.35-14.85L63.35-14.85 63.35-12.6 63.4-11.78 63.4-10.03Q63.4-9.08 63.71-8.22 64.02-7.38 64.81-6.74 65.6-6.1 66.98-5.74 68.37-5.38 70.52-5.38L70.52-5.38Q72.8-5.38 74.9-5.81 77-6.25 78.92-7L78.92-7 78.3-1.25Q76.6-0.38 74.27 0.13 71.95 0.63 69.15 0.63ZM77.45-14.55L77.45-9.83 60.1-9.83 60.1-14.55 77.45-14.55ZM121.19-15.88L121.19 0 113.54 0 113.54-14.65Q113.54-15.95 113.23-16.89 112.92-17.82 112.18-18.32 111.44-18.82 110.14-18.82L110.14-18.82Q109.04-18.82 108.22-18.41 107.39-18 106.84-17.29 106.29-16.57 106.02-15.68L106.02-15.68 105.29-19.25 105.97-19.25Q106.37-20.9 107.24-22.24 108.12-23.58 109.67-24.36 111.22-25.15 113.64-25.15L113.64-25.15Q116.27-25.15 117.93-24.11 119.59-23.08 120.39-21.01 121.19-18.95 121.19-15.88L121.19-15.88ZM91.09-17.7L91.09 0 83.44 0 83.44-24.58 91.04-24.58 90.79-17.95 91.09-17.7ZM106.14-15.75L106.14 0 98.49 0 98.49-14.65Q98.49-15.95 98.18-16.89 97.87-17.82 97.12-18.32 96.37-18.82 95.09-18.82L95.09-18.82Q93.97-18.82 93.14-18.41 92.32-18 91.78-17.29 91.24-16.57 90.97-15.68L90.97-15.68 89.79-19.25 91.09-19.25Q91.47-20.93 92.33-22.25 93.19-23.58 94.72-24.36 96.24-25.15 98.57-25.15L98.57-25.15Q101.99-25.15 103.73-23.39 105.47-21.63 105.92-18.28L105.92-18.28Q105.99-17.78 106.07-17.05 106.14-16.32 106.14-15.75L106.14-15.75ZM133.59-13.8L133.59-13.8 131.49-18.45 133.29-18.45Q133.89-21.5 135.63-23.24 137.37-24.98 140.54-24.98L140.54-24.98Q141.09-24.98 141.55-24.9 142.02-24.83 142.44-24.73L142.44-24.73 142.82-17Q142.29-17.15 141.59-17.21 140.89-17.28 140.17-17.28L140.17-17.28Q137.72-17.28 136.04-16.36 134.37-15.45 133.59-13.8ZM133.74-16.63L133.74 0 126.09 0 126.09-24.58 133.29-24.58 132.97-16.73 133.74-16.63ZM153.59-24.58L153.59 0 145.94 0 145.94-24.58 153.59-24.58ZM149.76-26.9L149.76-26.9Q147.61-26.9 146.64-27.89 145.66-28.88 145.66-30.55L145.66-30.55 145.66-30.73Q145.66-32.4 146.64-33.38 147.61-34.35 149.76-34.35L149.76-34.35Q151.86-34.35 152.85-33.38 153.84-32.4 153.84-30.73L153.84-30.73 153.84-30.55Q153.84-28.85 152.85-27.88 151.86-26.9 149.76-26.9ZM182.14-15.68L182.14 0 174.49 0 174.49-14.45Q174.49-15.8 174.14-16.79 173.79-17.78 172.96-18.3 172.14-18.82 170.71-18.82L170.71-18.82Q169.54-18.82 168.64-18.41 167.74-18 167.12-17.29 166.51-16.57 166.21-15.68L166.21-15.68 165.04-19.25 166.34-19.25Q166.74-20.93 167.65-22.25 168.56-23.58 170.16-24.36 171.76-25.15 174.21-25.15L174.21-25.15Q176.96-25.15 178.71-24.09 180.46-23.03 181.3-20.93 182.14-18.82 182.14-15.68L182.14-15.68ZM166.34-17.7L166.34 0 158.69 0 158.69-24.58 166.29-24.58 166.04-18.43 166.34-17.7ZM197.88-7.65L197.88-7.65Q191.96-7.65 188.98-9.85 186.01-12.05 186.01-16.03L186.01-16.03 186.01-16.35Q186.01-19.05 187.22-20.91 188.43-22.78 190.96-23.8 193.48-24.83 197.43-25.03L197.43-25.03 210.56-25.63 210.56-20.23 204.03-20.4 204.03-20.15Q205.71-19.88 206.8-19.21 207.88-18.55 208.42-17.49 208.96-16.43 208.96-14.88L208.96-14.88 208.96-14.7Q208.96-11.28 206.25-9.46 203.53-7.65 197.88-7.65ZM197.51 3.98L197.51 3.98 198.26 3.98Q200.06 3.98 201.17 3.75 202.28 3.53 202.81 3.08 203.33 2.63 203.33 1.95L203.33 1.95 203.33 1.9Q203.33 1.03 202.6 0.65 201.86 0.28 200.38 0.15L200.38 0.15 193.13-0.58 194.81-0.68Q194.06-0.55 193.52-0.25 192.98 0.05 192.67 0.5 192.36 0.95 192.36 1.6L192.36 1.6 192.36 1.65Q192.36 2.4 192.91 2.93 193.46 3.45 194.6 3.71 195.73 3.98 197.51 3.98ZM198.08 9.58L198.08 9.58 197.13 9.58Q193.43 9.58 190.82 8.99 188.21 8.4 186.86 7.13 185.51 5.85 185.51 3.75L185.51 3.75 185.51 3.65Q185.51 2.23 186.13 1.25 186.76 0.28 187.93-0.28 189.11-0.83 190.68-0.95L190.68-0.95 190.68-1.2Q188.76-1.55 187.72-2.43 186.68-3.3 186.68-4.88L186.68-4.88 186.68-4.9Q186.68-6.03 187.2-6.8 187.71-7.58 188.71-7.99 189.71-8.4 191.16-8.47L191.16-8.47 191.16-9.3 196.81-7.88 195.16-7.9Q194.28-7.9 193.92-7.68 193.56-7.45 193.56-7L193.56-7 193.56-6.98Q193.56-6.43 194.15-6.19 194.73-5.95 196.06-5.8L196.06-5.8 201.88-5.13Q206.13-4.63 208.21-3.03 210.28-1.43 210.28 1.93L210.28 1.93 210.28 2.08Q210.28 4.63 208.85 6.29 207.41 7.95 204.7 8.76 201.98 9.58 198.08 9.58ZM197.63-12.8L197.63-12.8Q199.11-12.8 200.07-13.19 201.03-13.58 201.52-14.34 202.01-15.1 202.01-16.18L202.01-16.18 202.01-16.4Q202.01-17.48 201.53-18.23 201.06-18.98 200.1-19.36 199.13-19.75 197.63-19.75L197.63-19.75 197.61-19.75Q196.08-19.75 195.11-19.35 194.13-18.95 193.67-18.2 193.21-17.45 193.21-16.38L193.21-16.38 193.21-16.18Q193.21-15.1 193.7-14.34 194.18-13.58 195.16-13.19 196.13-12.8 197.63-12.8Z" fill="#ffffff" data-fill-palette-color="primary"></path></g></svg></g></svg></g><g transform="matrix(1,0,0,1,0,102.92171263079798)"><svg viewBox="0 0 395.52 51.457692250179726" height="51.457692250179726" width="395.52"><g transform="matrix(1,0,0,1,0,0)"><svg width="395.52" viewBox="1.5 -35 273.25 35.55" height="51.457692250179726" data-palette-color="#6d2713"><path d="M18-35L18-35Q23.9-35 27.73-30.5 31.55-26 31.55-19.05L31.55-19.05Q31.55-10.25 27-4.85 22.45 0.55 15.05 0.55L15.05 0.55Q9.3 0.55 5.4-4.08 1.5-8.7 1.5-15.5L1.5-15.5Q1.5-24 6.15-29.5 10.8-35 18-35ZM24.75-16.25L24.75-16.25Q24.75-28.9 16.45-28.9L16.45-28.9Q12.65-28.9 10.48-26.08 8.3-23.25 8.3-17.63 8.3-12 10.63-8.38 12.95-4.75 16.78-4.75 20.6-4.75 22.68-7.83 24.75-10.9 24.75-16.25ZM51.29-34.5L62.14-34.5Q66.94-34.5 69.79-31.78 72.64-29.05 72.64-24.3 72.64-19.55 69.04-16.18 65.44-12.8 60.24-12.8L60.24-12.8 57.39-12.8 57.99 0 51.29 0 51.89-12.15 51.29-34.5ZM60.34-29.45L60.34-29.45 57.89-29.45 57.54-17.65 60.94-17.65Q63.44-17.65 64.82-19.3 66.19-20.95 66.19-24L66.19-24Q66.19-29.45 60.34-29.45ZM95.83-29.45L86.98-28.75 87.53-34.5 111.28-34.5 110.73-28.75 102.03-29.5 101.83-13 102.43 0 95.43 0 96.03-12.15 95.83-29.45ZM129.52-33.5L136.62-34.75 135.92-13 136.52 0 129.52 0 130.12-12.15 129.52-33.5ZM172.87-35L172.87-35Q178.77-35 182.59-30.5 186.42-26 186.42-19.05L186.42-19.05Q186.42-10.25 181.87-4.85 177.32 0.55 169.92 0.55L169.92 0.55Q164.17 0.55 160.27-4.08 156.37-8.7 156.37-15.5L156.37-15.5Q156.37-24 161.02-29.5 165.67-35 172.87-35ZM179.62-16.25L179.62-16.25Q179.62-28.9 171.32-28.9L171.32-28.9Q167.52-28.9 165.34-26.08 163.17-23.25 163.17-17.63 163.17-12 165.49-8.38 167.82-4.75 171.64-4.75 175.47-4.75 177.54-7.83 179.62-10.9 179.62-16.25ZM226.51-33.85L232.61-34.6 231.96-13 232.51-1.1 226.61 0.15 211.71-23.95 211.71-13 212.41 0 206.16 0 206.76-12.15 206.16-34.35 212.16-34.65 227.01-10.2 226.51-33.85ZM251.5-4.55L255.4-9.95Q259.65-5.7 263.9-5.7L263.9-5.7Q266.1-5.7 267.42-6.73 268.75-7.75 268.75-9.38 268.75-11 267.15-12.13 265.55-13.25 263.27-14.1 261-14.95 258.75-16.03 256.5-17.1 254.9-19.1 253.3-21.1 253.3-23.95L253.3-23.95Q253.3-28.45 257.05-31.73 260.8-35 265.95-35L265.95-35Q268.3-35 270.5-34.5 272.7-34 274.75-33.05L274.75-33.05 271.35-25.75Q269.95-26.85 267.52-27.78 265.1-28.7 263.27-28.7 261.45-28.7 260.32-27.83 259.2-26.95 259.2-25.5 259.2-24.05 260.8-22.93 262.4-21.8 264.67-20.95 266.95-20.1 269.22-19.07 271.5-18.05 273.1-16.05 274.7-14.05 274.7-11.2L274.7-11.2Q274.7-6.5 270.95-2.98 267.2 0.55 262.2 0.55L262.2 0.55Q258.45 0.55 255.55-1.25L255.55-1.25Q253-2.8 251.95-4L251.95-4 251.5-4.55Z" opacity="1" transform="matrix(1,0,0,1,0,0)" fill="#ffffff" class="slogan-text-1" data-fill-palette-color="secondary" id="text-1"></path></svg></g></svg></g></svg></g></svg></g><g><svg viewBox="0 0 244.23872785072692 244.23872785072692" height="244.23872785072692" width="244.23872785072692"><g><svg></svg></g><g id="icon-0"><svg viewBox="0 0 244.23872785072692 244.23872785072692" height="244.23872785072692" width="244.23872785072692"><g><path d="M0 122.119c0-67.445 54.675-122.119 122.119-122.119 67.445 0 122.119 54.675 122.12 122.119 0 67.445-54.675 122.119-122.12 122.12-67.445 0-122.119-54.675-122.119-122.12zM122.119 236.73c63.298 0 114.61-51.313 114.611-114.611 0-63.298-51.313-114.61-114.611-114.61-63.298 0-114.61 51.313-114.61 114.61 0 63.298 51.313 114.61 114.61 114.611z" data-fill-palette-color="accent" fill="#ffffff" stroke="transparent"></path></g><g transform="matrix(1,0,0,1,56.79587701323301,80.21641674670731)"><svg viewBox="0 0 130.6469738242609 83.8058943573123" height="83.8058943573123" width="130.6469738242609"><g><svg xmlns="http://www.w3.org/2000/svg" xmlns:xlink="http://www.w3.org/1999/xlink" version="1.1" x="0" y="0" viewBox="7.300394825687168 24.223 94.400609415343 60.555000000000135" enable-background="new 0 0 109 109" xml:space="preserve" height="83.8058943573123" width="130.6469738242609" class="icon-dxe-0" data-fill-palette-color="accent" id="dxe-0"><path fill-rule="evenodd" clip-rule="evenodd" fill="#ffffff" d="M43.898 63.354H57.485V83.78A0.996 0.996 0 0 1 56.49 84.777H44.896A0.997 0.997 0 0 1 43.898 83.78zM28.087 70.601V83.781C28.087 84.332 28.533 84.778 29.083 84.778H40.677A0.996 0.996 0 0 0 41.673 83.781V63.403L41.67 63.354H35.333zM59.71 63.354V83.78C59.71 84.331 60.155 84.777 60.706 84.777H72.301C72.851 84.777 73.297 84.331 73.297 83.78V63.185A8 8 0 0 1 71.644 63.355zM75.522 62.357V83.78C75.522 84.331 75.967 84.777 76.518 84.777H88.113C88.663 84.777 89.109 84.331 89.109 83.78V49.582A1 1 0 0 0 89.056 49.267L77.318 61.004A8 8 0 0 1 75.522 62.357M12.279 83.085H12.275V83.78C12.275 84.331 12.721 84.777 13.272 84.777H24.867C25.417 84.777 25.863 84.331 25.863 83.78V73.241A1 1 0 0 0 25.798 72.89L17.953 80.735A7.98 7.98 0 0 1 12.279 83.085M96.721 24.223H81.496A4.978 4.978 0 1 0 81.496 34.18H84.705L69.583 49.3H32.009A4.97 4.97 0 0 0 28.49 50.758L8.759 70.488A4.977 4.977 0 0 0 12.279 78.985 4.96 4.96 0 0 0 15.8 77.527L34.071 59.255H71.644C72.964 59.255 74.23 58.732 75.165 57.797L91.744 41.218V44.426A4.979 4.979 0 1 0 101.7 44.426V29.201A4.98 4.98 0 0 0 96.721 24.223" data-fill-palette-color="accent"></path></svg></g></svg></g></svg></g></svg></g></svg></g><defs></defs></svg><rect width="395.52" height="142.2547889837279" fill="none" stroke="none" visibility="hidden"></rect></g></svg></g></svg>